# xmcd CD database file
#
# Track frame offsets:
#	150
#	26862
#	45007
#	67370
#	94647
#	142462
#	166790
#	189347
#	219095
#	249092
#
# Disc length: 3499 seconds
#
# Revision: 0
# Processed by: cddbd v1.5.1PL0 Copyright (c) Steve Scherf et al.
# Submitted via: CDex 1.51
#
DISCID=830da90a
DTITLE=Luigi Tessarolo - Stefano Bollani - Homage to Bill Evans and Jim Hall
DYEAR=2000
DGENRE=Jazz
TTITLE0=I've Got You Under My Skin
TTITLE1=My Funny Valentine
TTITLE2=Darn That Dream
TTITLE3=My Man Has Gone How
TTITLE4=Il Mondo di Fabio
TTITLE5=Romaine
TTITLE6=Border Line
TTITLE7=Turn Out the Stars
TTITLE8=Il Barbone di Siviglia
TTITLE9=I'm Getting Sentimental Over You
EXTD=YEAR: 2000
EXTT0=
EXTT1=
EXTT2=
EXTT3=
EXTT4=
EXTT5=
EXTT6=
EXTT7=
EXTT8=
EXTT9=
PLAYORDER=
